<svg id="svg" version="1.1" xmlns="http://www.w3.org/2000/svg" xmlns:xlink="http://www.w3.org/1999/xlink" width="400" height="400" viewBox="0, 0, 400,400"><g id="svgg"><path id="path0" d="M0.000 200.000 L 0.000 400.000 200.000 400.000 L 400.000 400.000 400.000 200.000 L 400.000 0.000 200.000 0.000 L 0.000 0.000 0.000 200.000 M288.372 101.389 C 329.732 135.000,363.643 164.459,363.731 166.854 C 363.818 169.249,353.232 179.779,340.206 190.255 C 327.181 200.730,317.493 210.118,318.678 211.115 C 319.864 212.113,330.521 220.813,342.361 230.449 C 354.201 240.086,363.889 249.541,363.889 251.462 C 363.889 254.913,233.950 362.761,226.219 365.728 C 219.876 368.162,220.319 246.744,226.676 240.387 C 229.126 237.938,249.751 220.826,272.510 202.362 C 295.268 183.897,313.824 168.000,313.746 167.034 C 313.497 163.991,205.130 77.146,199.862 75.769 C 195.227 74.557,83.333 162.138,83.333 166.978 C 83.333 167.947,99.896 182.222,120.139 198.700 C 140.382 215.178,161.007 232.457,165.972 237.097 L 175.000 245.534 175.000 304.548 C 175.000 340.587,173.927 364.224,172.244 365.265 C 169.412 367.015,34.939 259.672,32.259 253.522 C 31.407 251.565,40.837 241.621,54.273 230.306 C 82.432 206.593,82.463 211.020,53.984 188.039 C 41.098 177.641,30.556 168.228,30.556 167.121 C 30.556 164.819,183.876 39.205,192.765 34.225 C 200.554 29.861,199.071 28.819,288.372 101.389 M230.032 138.465 C 267.091 168.477,266.253 167.091,253.636 177.491 C 239.703 188.976,237.410 188.582,216.158 171.053 L 197.902 155.994 179.760 171.053 C 158.624 188.596,156.266 189.004,143.047 177.398 C 130.655 166.517,129.294 168.917,163.889 140.643 C 199.384 111.634,196.998 111.713,230.032 138.465 M93.604 240.972 C 80.391 250.997,79.744 249.540,107.639 272.551 C 121.007 283.578,134.132 294.459,136.806 296.731 C 141.369 300.609,141.666 299.604,141.656 280.292 L 141.646 259.722 125.320 246.528 C 106.167 231.049,106.586 231.122,93.604 240.972 M271.528 246.079 L 255.556 258.783 255.556 279.822 C 255.556 299.581,255.851 300.610,260.417 296.731 C 263.090 294.459,276.411 283.415,290.017 272.189 L 314.757 251.776 303.906 242.596 C 290.175 230.979,290.564 230.937,271.528 246.079 " stroke="none" fill="#000000" fill-rule="evenodd"></path></g></svg>