<svg id="svg" xmlns="http://www.w3.org/2000/svg" xmlns:xlink="http://www.w3.org/1999/xlink" width="400" height="400" viewBox="0, 0, 400,400"><g id="svgg"><path id="path0" d="M184.524 45.581 C 167.914 54.592,165.778 82.105,180.952 91.581 C 198.640 102.627,192.752 116.579,162.900 134.362 C 130.771 153.501,114.286 151.486,114.286 128.421 C 114.286 109.795,90.329 99.773,72.105 110.776 C 40.953 129.584,66.096 178.775,98.105 161.645 C 116.796 151.642,123.810 162.221,123.810 200.416 C 123.810 236.679,114.613 249.090,96.244 237.618 C 80.004 227.477,56.274 244.423,58.062 264.886 C 61.024 298.809,114.286 305.544,114.286 271.996 C 114.286 247.835,129.264 245.602,161.705 264.927 C 192.759 283.426,198.868 297.230,180.952 308.419 C 151.537 326.789,183.214 370.830,214.286 354.762 C 232.068 345.566,234.869 318.300,219.048 308.419 C 200.899 297.084,207.157 282.796,238.252 264.571 C 270.695 245.557,285.714 247.907,285.714 271.996 C 285.714 290.204,309.907 300.084,327.895 289.224 C 359.047 270.416,333.904 221.225,301.895 238.355 C 283.269 248.324,276.190 237.761,276.190 200.000 C 276.190 162.239,283.269 151.676,301.895 161.645 C 333.904 178.775,359.047 129.584,327.895 110.776 C 309.907 99.916,285.714 109.796,285.714 128.004 C 285.714 152.093,270.695 154.443,238.252 135.429 C 207.157 117.204,200.899 102.916,219.048 91.581 C 234.751 81.774,232.074 54.437,214.522 45.360 C 197.939 36.785,200.775 36.764,184.524 45.581 M209.027 61.497 C 218.250 67.337,211.933 80.952,200.000 80.952 C 188.067 80.952,181.750 67.337,190.973 61.497 C 199.232 56.267,200.768 56.267,209.027 61.497 M98.989 133.979 C 100.728 143.010,86.188 149.997,79.524 143.333 C 72.643 136.452,79.708 122.872,89.217 124.703 C 93.778 125.581,98.175 129.756,98.989 133.979 M321.429 135.383 C 321.429 145.948,314.694 149.229,305.258 143.260 C 296.255 137.565,302.532 122.682,313.081 124.713 C 317.672 125.597,321.429 130.399,321.429 135.383 M190.476 159.524 C 190.476 183.974,189.297 184.552,167.071 171.003 L 150.809 161.089 169.452 150.041 C 179.706 143.964,188.631 138.791,189.286 138.544 C 189.940 138.297,190.476 147.738,190.476 159.524 M246.966 160.128 C 249.147 161.724,217.915 180.911,213.095 180.935 C 211.131 180.944,209.524 171.382,209.524 159.684 L 209.524 138.416 227.381 148.640 C 237.202 154.263,246.015 159.432,246.966 160.128 M180.299 198.223 C 182.481 199.819,151.248 219.006,146.429 219.030 C 144.464 219.040,142.857 209.477,142.857 197.780 L 142.857 176.512 160.714 186.735 C 170.536 192.358,179.349 197.528,180.299 198.223 M257.143 197.619 C 257.143 222.069,255.963 222.648,233.738 209.098 L 217.475 199.184 236.119 188.136 C 246.372 182.060,255.298 176.886,255.952 176.639 C 256.607 176.392,257.143 185.833,257.143 197.619 M244.861 237.484 C 245.946 239.240,238.439 245.275,228.179 250.895 L 209.524 261.114 209.524 237.860 L 209.524 214.607 226.206 224.449 C 235.381 229.863,243.775 235.729,244.861 237.484 M190.476 240.316 L 190.476 261.584 172.619 251.360 C 162.798 245.737,153.985 240.568,153.034 239.872 C 150.853 238.276,182.085 219.089,186.905 219.065 C 188.869 219.056,190.476 228.618,190.476 240.316 M94.742 256.735 C 102.835 261.860,98.256 276.190,88.526 276.190 C 79.573 276.190,74.587 268.189,78.000 259.296 C 81.034 251.388,85.273 250.740,94.742 256.735 M321.429 264.617 C 321.429 269.601,317.672 274.403,313.081 275.287 C 302.532 277.318,296.255 262.435,305.258 256.740 C 314.694 250.771,321.429 254.052,321.429 264.617 M212.748 326.671 C 217.228 338.345,202.964 346.095,190.973 338.503 C 181.750 332.663,188.067 319.048,200.000 319.048 C 205.402 319.048,211.139 322.478,212.748 326.671 " stroke="none" fill="#000000" fill-rule="evenodd"></path></g></svg>